<mxfile host="Electron" agent="Mozilla/5.0 (Windows NT 10.0; Win64; x64) AppleWebKit/537.36 (KHTML, like Gecko) draw.io/24.7.5 Chrome/126.0.6478.183 Electron/31.3.0 Safari/537.36" version="24.7.5">
  <diagram name="第 1 页" id="AnyhGNHoD34IN8VvQydW">
    <mxGraphModel dx="854" dy="467" grid="1" gridSize="10" guides="1" tooltips="1" connect="1" arrows="1" fold="1" page="1" pageScale="1" pageWidth="827" pageHeight="1169" math="0" shadow="0">
      <root>
        <mxCell id="0" />
        <mxCell id="1" parent="0" />
        <mxCell id="jS7jD-KFzvZU8KAP5oS8-1" value="指令重排是Java编译器和处理器为了优化性能，在保证单线程程序语义不变的情况下，对指令执行顺序进行调整的过程。单线程不会影响。多线程会导致数据不一致。" style="text;whiteSpace=wrap;fontSize=18;" vertex="1" parent="1">
          <mxGeometry x="10" y="10" width="560" height="70" as="geometry" />
        </mxCell>
        <mxCell id="jS7jD-KFzvZU8KAP5oS8-2" value="指令重排三种类型：&#xa;编译器：编译器会在不影响单线程程序语义的情况下重排序代码，以提升执行效率。&#xa;&#xa;处理器：现代处理器会进行指令流水线优化，允许多条指令并行执行或重排序。&#xa;&#xa;内存系统：不同线程访问共享内存时，内存系统可能会对内存操作顺序进行调整，" style="text;whiteSpace=wrap;fontSize=18;" vertex="1" parent="1">
          <mxGeometry x="10" y="100" width="730" height="90" as="geometry" />
        </mxCell>
        <mxCell id="jS7jD-KFzvZU8KAP5oS8-3" value="单例双重检查锁定的指令重排问题" style="text;whiteSpace=wrap;fontSize=18;fillColor=#ffe6cc;strokeColor=#d79b00;" vertex="1" parent="1">
          <mxGeometry x="10" y="270" width="300" height="50" as="geometry" />
        </mxCell>
        <mxCell id="jS7jD-KFzvZU8KAP5oS8-4" value="指令重排导致其他线程读取到未初始化完成的对象。" style="text;html=1;align=center;verticalAlign=middle;resizable=0;points=[];autosize=1;strokeColor=none;fillColor=none;fontSize=18;" vertex="1" parent="1">
          <mxGeometry y="320" width="440" height="40" as="geometry" />
        </mxCell>
        <UserObject label="public class Singleton {&#xa;   private static volatile Singleton instance;&#xa;&#xa;&#xa;   private Singleton() {}&#xa;&#xa;&#xa;   public static Singleton getInstance() {&#xa;       if (instance == null) {&#xa;           synchronized (Singleton.class) {&#xa;               if (instance == null) {&#xa;                   instance = new Singleton();  // 可能会发生指令重排&#xa;               }&#xa;           }&#xa;       }&#xa;       return instance;&#xa;   }&#xa;}" link="public class Singleton {&#xa;   private static volatile Singleton instance;&#xa;&#xa;&#xa;   private Singleton() {}&#xa;&#xa;&#xa;   public static Singleton getInstance() {&#xa;       if (instance == null) {&#xa;           synchronized (Singleton.class) {&#xa;               if (instance == null) {&#xa;                   instance = new Singleton();  // 可能会发生指令重排&#xa;               }&#xa;           }&#xa;       }&#xa;       return instance;&#xa;   }&#xa;}" id="jS7jD-KFzvZU8KAP5oS8-5">
          <mxCell style="text;whiteSpace=wrap;fontSize=18;fillColor=#647687;fontColor=#ffffff;strokeColor=#314354;" vertex="1" parent="1">
            <mxGeometry x="20" y="360" width="530" height="410" as="geometry" />
          </mxCell>
        </UserObject>
        <mxCell id="jS7jD-KFzvZU8KAP5oS8-6" value="" style="shape=image;verticalLabelPosition=bottom;labelBackgroundColor=default;verticalAlign=top;aspect=fixed;imageAspect=0;image=data:image/png,iVBORw0KGgoAAAANSUhEUgAAAZYAAACECAYAAACzkQ2yAAAABWZkRUNSJJPjAOWrYpkAAFIRSURBVHgB5cRjtCVn2oDh+3mravPY57RtxLYzM0kGydi2bdu2EYxi22bbPH2szap6n2/Vj7PWXr06mWimZ773x3Whquoylz0VURTp6NiEDo+Oq8tc5rL/j0bHJjSKIlVVfbYZAJe57KnwPI98LoPveQC4zGUu+//E9zzyuQye5wHwbDMALnPZU+V5HnX5LNlMGt/3MCIAuMxlLvtfZETwfY9sJk1dPovneQD8OxgAl7ns6UqnAupyWRrq8zQ11OEyl7nsf1FDfZ66XJZ0KgDg38kAuMxlLnOZy1z2n2QAXOYyl7nMZS77TzIALnOZy1zmMpf9JxkAl7nMZS5zmcv+kwyAy1zmMpe5zGX/SQbAZS5zmctc5rL/JAPgMpe5zGUuc9l/kgFwmctc5jKXuew/yQC4zGUuc5nLXPafZABc5jKXucxlLvtPMgAuc5nLXOYyl/0nGQCXucxlLnOZy/6TDIDLXOYyl7nMZf9JBsBlLnOZy1zmsv8kA+Ayl7nMZS5z2X+SAXCZy1zmMpe57D/JALjMZS5zmctc9p9kAFzmMpe5zGUu+08yAP9fRXEMwP5WLpe58aab6d2zB4Cno1wuc8+991EslQB4psbHx7n7nnsplkoAPFlxHLNu/QaKpRIALnOZy1z2ZBmA/3UDA4O8/4MfYfPmLQAkbrjxZl7wopcwMDAIwL6cf+Ff+ejHP8Xj+enPf8mVV13DRz/+Kfb22c9/iR07dgLwr4yNjfOxT36GRx9bBcDT8cijj/GWt7+bjRs3AfBMbdm6jTe+5e3cc8+9ADxZvb17ePNb38Hnv/BloigCoHfPHi6/8ioezzXXXsfIyCgALnOZy1xkAP4T1qxdx5133U0UxwA8W1SVCy76K/fcez9BEACQmDt3Nv0DA1x19TUA7Mu6deu58eZbuOqa6/jLBRdx7fU3cP6Ff+XyK6/ixptv4ZFHH2Prtm3cePMt1Lrqmuu44KK/MTwyAsC/Uq6UCcMQgCfjwYce5vIrr6LWz37+K3zPY82atVx+5VU8kQ0bNwJQLpe58aabufzKq9jbli1bmdLTwx/++Bcuv/Iq9uXOu+4mimMAJk2Z0sNXv/xFLr70cq686hoANmzYxOe/+BX25ROf+hzvef+H2b5jBwAuc5nLXGQA/p3iOOaCC//Kc89+Id/+7g+oVCoAPFsefvgRfvrzX/Le97yDqVOnAJCYNnUqr3rFy/npz3/Fjh07AdjbJz/+Ee645QZ++6ufsXDhAi748x845OCD+ObXv8Idt9zAD777Ld78xtdzxy03UOu3v/oZDQ31AEyK45jBwUH6+vrZ25YtWwHwPY++vn72NjwygqoCkPj9H/7E297xHmpdc9317Onr44Mf+Thve8d7eCLXXHsDAGNj43zsk5/hox//FJ//4leo9aWvfp3hkREeXbWKz3/xK+ztAx/8KN/+7g+oVCoAqCrDIyMUikUOOfhAXnzuC/neD37E4OAgRx91BHfccgP78ttf/YyGhnoAXOYyl7nKAPw7xHHM9TfcxPPOeREf+8SnMcYA8GzauXMX73n/hzjl5JN43nPOBKDWK172Yrq6Ovjwxz7B+Pg4AP8ug4NDPO/553Lokceyt1e99o309w/wmte/mUOPPJa9veVt76JYKgGQ+ObXv8KWDauZ9NlPf4Kuzk5uufEatmxYzb/y1je/AYBJ3/z6V7jjlht4Kt75jrcBMKlYKvGWt72L3/3+T4gIb3zDa/nOt75OS0sLAC5zmctc9q8YgH+HwcEhPvmZz5FOp/n7X8/ngJUrAHi2jIyM8oEPf4z6+nre/9534fs+ALXq6+v5+Ec+xCOPPsYXvvRVyuUyAJMeefQxFi07gOed8yJWr17DCSefzl1338Mb3vQ2Zs5dxI9/+gsAnopf/OxHbNmwmlrf+ebX6Onp5u7bb2bLhtXU+vAH3w/A49m9u5df/+Z3nPuiFzB1yhQAnoliqcR3vvdDdu7cBUAURbz3/R/mk5/+HH19/QA8GR3t7XR2tNPfP0BfXz+1BgYGiaIIAJe5zGUum2QA/h1aWpq55B8X8feL/sLs2bMAeLbs2LGTV732DQwODvLjH3yX7q4uAPZlxYrl/PoXP+WKq67mne9+P/39AwBMmjZ1Kr/79c85YOUKLjr/jxxz9FH87tc/58zTTwPg2fDgQw8za+YM6urrAHiyVJWf//LXeL7Py156HrfdfidHHHMCT+SPf/oLAInW1hYu+fuFHHPUkagqt99xJ2c85xwuuexySuUSAInnn/M8br7lNo489kR+8rNfUi6XOeXkE3jvu99BOp0GYG+Dg0M87/nncuiRx7K3Y044mdVr1gLgMpe5zGWTDMC/g+/7tDQ3A/BsuurqaznljOdSX1/HH3/3a6ZM6QHgiRx04AH85Y+/49FVqzjptDN5+JFHAUh4vk9LSwupVIrW1lYymQzNzc1ksxkAKpUKfX391BoeHkatAvCvjI+P8+BDD/PIo49x//0PAvBkXXnVNfz5/Av4wHvfTXdXF3PnzuaTH/8Ie/vExz7MyhXL2bOnj47ODgASnufR0tLC5s1beNVr38DLX/U6jj/uGP751/OZO2cOAL7vc+wxR3P9NZfzpc9/hm986zu87JWvJZPOcPhhh+J7HgCP5xc/+xFbNqxm0t2338zMmTMBcJnLXOayWgbgf8n0aVP5wPvew9e+/EXe9s73cMQxJ/BkDA0Nc8Ul/+Dzn/kUixctBKBWS0szmXQagFq33HY7hx55LLVe9do3Mjo2CsC/cv8DD/LoY6tYuGABb3/Xe7j1tjsA+FceeuhhPvyxT3DM0UdxysknAtDV2cmZp59GreOPO5Y777ybu+6+lz/89pecctKJAEy67oYbOfOsFzAxUeDqKy7hs5/+BHV1dQDU8jyP8859ITdeeyVRFPHhj32CYqkEgMtc5jKXPRsMwP+SRYsW8vrXvprW1hbe/tY38cmPf4TEmaefRqFQ4F3veBuf/PhHmPSud7yNQqFAuVKmqamRs896Lr7vAzBp167d+L5POpMmDEP29PVRKpUBSPT0dHP37TezZcNqJq1+5AGWLV0CwOMZHx/nhz/+KQcdeAA//fH3ee5zzuTt73oPDz30MACPZ+fOXbzn/R9ibGyc+ro6fN8HYG9r1q7jjOecw6bNm7ns4r9y5BGHA1Dr6COP4I5bb+DvF/2FeXPnAPBEpk6dwl/+9Du++61vkMtmAXgi9957H5dfeRWTrrvhRgoTBQBc5jKXuayWAfhflMlkOP64Yznz9NNIZDIZDjrwAF5wzlmcefppTDrphOOpq6sDYF/UWq665loOPuhAmpuaOPboo/jkpz/H1ddeB8DTFUURX/rK13ngwYd5/3vfTXNTE5/91Mc58/TTeM/7P8TOnbsA2NuWrdt47RveTH19Pa94+UsBeDw7du4kjEK+/Y2v0d3VBcDeMpkM1157PUcccwJP1kmnnsmatesA+Ff+fP6FfP6LX2HSt7/7fYaGhwFwmctc5rJaBuB/3ejoGLfcehvHH3cs6XQagEmxjfE9n0w6A8DeqmHIrJkzOPWUkxARXvfaV3HHLTdw9vOeA8DTEUURP/jRT/jLBRfx/ve+m0MOPhAA3/f52Ec+SE9PNx/66McZHx8HoFY6nWLJ4sX89MffZ0pPDwCVSoWf/vyXfPTjn6LWb3/3B/r7B/jiV77GRz/+KSadf+FfAZg0ZUoPxx97DLWOOvIIKuUKba2tHH/sMeytpaUZgH/lm1//CnfccgOTLv3HX5k2bSoALnOZy1xWywD8r3vwoYfYuWs3hx92KAC1BgYGCaOQxsYGAPY2MTHB+g0b+d73f8RHP/4pJt11z70APJ7dvb3ccOPNlMtlACaViiU++OGP870f/JjPfOrjvPmNr0NEAEjU19fz6U9+nDVr1/P3f14CQK3uri6+/c2v0t3VBcCz4fjjjuXLX/wctT776U8wb95czjzjdL78xc+xt8WLFgLgMpe5zGXPFgPw32BsbJxKpQLAUzE+Ps4Pf/xTTj7xeObMmQ1ArdHRMUSExsYGAJ4tAwODfOyTn2b9ho0ATMrmsrztrW/irxf8iVe/8uWICAC15s+by6X/uIiXveQ8AP6VdDrNm9/4er78xc9R69WvegXt7W18/CMf4stf/ByTXnzuCwH4T3j/Bz/CEcecwKTnnvNCtm/fAcATUVVuuvkWPvHpz/HDH/+UiYkJAFzmMpf9f2QA9rc777qblQcfzotf9irGx8cBeDLK5TJf+NJX6e8f4F3veBu+5wFQa2BggHwuR11dHQB7a21t5eMf+RBf/uLnqHXYIQcD8HjK5TKpIEVjYwMAtebNncMBK1cA8Hi6u7vwfR+A/0WZTIazn/cczjz9NI4/9hgmnXTC8Zz7wufT3NQEwOP505/P52vf+DYHH3gAW7Zu473v/zDlchkAl7nMZf/fGID9rbGhgabGRrq6OgmCAIB/ZWRklPe8/0NccdXVfOebX2PKlB4AapXLZS657HIWLlxAQ0MDAHsrTBS47oYbufzKq6i1fccOABJhGFKulAGYtGr1GlKpgLq6OgCeLmtjAP7XNDTU8+EPvp8vf/Fz7O3Tn/wYU6dOAWBfVJW7772P977nnZxz9vP4xEc/TLlSZvPmLQC4zGUu+//GAPy75XM5zv/T70jkczkAai1atJD777mdn/zwe2QyGQAej6py6WVXcPTxJ7N69Vr+8sffsWLFcsIw5Be/+g0f/finmHTW88/lhhtv5rwXvRDf8wDY29DwMN/+7vf5/Be/Qq37H3gIgCnd3RSLJZ53zos44pgTSBx+1PF89vNf4pijj6K5qQmAJ2vTps188tOf46Mf/xTv/+BH+PFPf0FHRzvpdBqAf6V3zx4uv/IqLrn0cv74p7/gez7GGAD29sijj7Fo2QHMnLuIvS1ZfhB33X0PX/36N5k5dxH78uKXvYpCsQjAU3XZFVfy0Y9/iq9941uUSiWy2QwACRGhuamJ1avXEMcx6zdsYGKiQHt7OwAuc5nL/r8xAP9LRIRUKsVLznsRl138VxYvWghAEASEYcSNN9/CpDlzZvOXP/6Wo486AoC9BUHAwQcdyBWX/J07brmBWq9+5ctpqK9j4cIF/OKnP+T5Z5/F8cceQ+Lss57Lr3/xEz70gfciIgB4nmFKTw+ZdAaAx9Pc0kw+nwMglUrx4nNfyIc/8D58zwOgVkN9HU1NTQBMKhVL/PBHP+VLX/06Gzdu5k1veC2trS0A7G3RwgXccsO13H37zTwdP/nR98hlswCICO3tbTTU1wHwr9Tl89x48y2Mj0/wtS9/kTmzZwMw6e1vfTN333MfcxYs5U1vfSfvfufbaGtrBcBlLnPZ/zcG4H/NqaecxCc+9mHq6uoAmPTWN7+BO265gUk//sF3OfSQgxERAPa2cMF8fvPLn9La2gpArU9+/CO8/GUvQUQ44vDD+MynPs6Xv/g5Eh/98Ac47thjyGQyACRaW1u58C9/4OijjgDg8TQ3NfGRD32AL3/xcyQ++fGPMHXqFAD29vKXvYRPfvwjAEyaNWsml138N+645QZuvuFqXvHylyIiAOzN933a2lrp6Gjn6WhuakJEAMhls/zgu9/i5S97CQD/ynHHHsMdt9zAP/56PqeechIiAsCk9vY2fv+bX7Blw2ruv/s2jj/uWABc5jKX/X9kAFzmMpe5zGUu+08yAC5zmctc5jKX/ScZAJe5zGUuc5nL/pMMgMtc5jKXucxl/0kGwGUuc5nLXOay/yQD4DKXucxlLnPZf5IBcJnLXOYyl7nsP8kAuMxlLnOZy1z2n2QAXOYyl7nMZS77TzIALnOZy1zmMpf9JxkAl7nMZS5zmcv+kwyAy1zmMpe5zGX/SQbAZS5zmctc5rL/JAPgMpe5zGUuc9l/kgFwmctc5jKXuew/yQC4zGUuc5nLXPafZABc5jKXucxlLvtPMgAuc5nLXOYyl/0nGYD/RcMjIyQAnqkHH3qYNWvXAbAvExMTFEslAJ6Kvr5+oigCoFKpMDg4SBzHADybojjmzrvuZsPGjQD8K+s3bGTrtm3EcQyAy1zmMpf9JxiA/zVRFPGJT36WD3zoo5TLZQCeLlXl17/9Pb/+ze8A2FsUx3z0E5/mLW97F+VyGYAnY2BgkJe+8jV889vfBeCW227nec8/l8HBIQCeTZVKhW9/9wdcc+0NADweVeWiv/6ds57/Im686RaMMQC4zGUuc9l/ggH4dxoeGeFXv/kdH/34p/jEpz/HtdffQBRFADxdvu/zipe/hAcfeoT1GzYCkPj8F7/CEcecwBP5/Be/AsCkYqlEb+8eZs6cCcDeNm7cxO133MXrX/sqMpkMqkocxwA8kauuvoaRkVGef87ZADwVGzZu5PIrr2Jvd951N1EcA/BUlctlvvClr/KBD3+MUqnMpz/7BWbNW8zMuYuYdOwJpzIwMAiAy1zmMpc92wzAv8v1N9zEkcecwHe+9wPGxyd45NHHeNNb3sELzn0pu3t7AXiqevfs4fIrr2LHjp3U1+W5+prruPzKq+jds4fnPfdMPvnxj/ChD7yXbDbLoYcczCc//hEmTZs6hZGREQAmFSYKbN+xg3nz5gBQK4pjfvXr37JyxTIOO/QQCoUCr3n9m/nO936IqgKwLzt27OSnP/8VL3vJecybOweAx3PlVdfw81/+mjiOAUjcddc9fP6LX6HWBz74Ub793R9QqVQAeLLiOOaWW2/ntDPP5trrbuCff7uALRtWM2nz+lX8/Kc/pKuzk8986uO0tbUC4DKXucxlzzYD8O+wZes2PvLxT3LWc5/D3bffzA++9y3++dfzufKyfzIwOMiXvvJ1ojgG4KnYsGETn//iV/jWd79PpVrl/Asv4m3veA+PPraKlSuWc+bpp3HqKSfT3tbGwgULOPP005g0bepUABLFUol3vPt9PPecF7Jr127e/8GPcMQxJ3DuS17B4OAgAPff/yDXXHcDb37jG8hkMuTzeV764nP53R/+yKOPrQJgb1EU8Z3v/5AgFfCyl56HiACwN1Xl0suu4B3vei9btm5DVQFIvPxlL+GOW26g1jvf8TZaWprp6+vns5//Eh/9+KeY9OnPfoH16zdw+RVX8tGPf4rzL/wrAA899DCnnnkWr3zN6xkYHGTlyuX85fwL+ejHP8Wk17z+zbzxzW+np6eba669jo9+/FMkPvv5L7Fjx04AXOYyl7ns2WAA/h2uve56yuUyr3vtq8lkMgAk5s+by/PPPouHHnqEkeERAJ6Ko486gjtuuYFJP/nh95gzZzYL5s8D4MnyjGHZ0iUsmD+PIAg4/rhjmTtnNjt37SKOLePj43zjW9/mnLOeyyEHHwhA4vjjjuHggw7kJz/9BVEUATBJVfnFr37LRX/9Ox9833vo7uoCYG9xHPPr3/6e97zvg7z2Na/is5/6OL7vA5AYGRklATBpz549NNTXE/g+AE/G7NmzeNMbXsfXv/JFqtUqALUGh4a47fY7OPWUk1gwfx4AicGhIf72j38yPDICwP93bNxAAmASGzcwCeDZBBtg4wYmAfy3Y+MGEmwEgAQbN5AA+G/Fxg0A/DeCDbBxAwmAZwMbNwDwdLBxAwk2AsAzYQD+HVavXsOC+fOZOqUHgFp1dXVEcYS1FoCnK4oifvmr33LUEYczdcoUABKoYq0lCHwA9iWdTvPmN76eI484gpUrlvOlz3+GV7/qFbS1tqIoX/jSVykUirzspefRu2cPt9x6G+df+Fe+8OWvsXnLVq6+9jruf+AhACZdedU1fO0b3wLAD3wA9lYoFvnwxz7Jl778NT720Q/xkQ+9H9/3AUjEccz3fvgjnv+iF7Nz5y4AKpUKW7dtY968uUydOoVPf/JjfPmLn2PSZz/9CebNm8uZZ5zOl7/4OV587gsBqK+v58XnvpDmlmba29v4+Ec+xJe/+DkSX/rCZ1m5YjlLlyzmm1/7Ml/+4ueY9M63v5VcLgfA/3dc9WY4aB4JfrABANgAb5oHB82Dg14NGwFgX9h4BfzgzfCDDQD8K3AFNM2Dg+aR4KCvA/BksXED/wpXXcG+8M43k+AHVwBQix8cBU1CgqsAYBJcAQfNI8GbvgsAG78LB80jwQ82ALA3fvBmeOebebr4wQYAarFxA/8KGwEAroCD5kGTwEnfBeC/Ce+cBwfNg4NeDRsBIAEb4Advhne+mX+FqzYAkGBiHN40D5oETnozbNzA4wGoBRvgTfPgoHnwpu8C8EwYgH+HT3/y4/zsJz8gl8sBMCmKIh548EE62tvJZjMAPF1XXnUNDz78MK977asplcsMDAwCUCgU2blrFzNnzgDg8agqa9auZfasmeTzebZs2Up9fR0PP/wIF1z0Nx5btZqTT3suRx17Eh/88Mf5818uII4iXvnyl7Jo4QJ++7s/EEURqsqll13BO9/9PlauWI7veQDsrbd3D+e88Dyuv/5GfvebX/C617wKz/MAmOR5Hu991zvo6enmQx/9OOPj4wyPjLBly1YWLlgAQBzHqCoAT1Z//wBf/MrX+OjHP0Xi/R/8CN//4Y8pVyp86Stf56Mf/xSTvv/DH1MsFgFwWS3YABuvgKu+C+88Ck4SaBI46Ez4xM/g75cB8ERgA5x0JgCT4GfwzisA+FfgCjhoHv8KLz6TfeH3PyPBJ/4BwL8ba38Gv/8ZTxdr1wMwiaveDAfN41/hTd8FgI3rAEiweD4A/wobr4B3HgUnHQVNAk1HwUlvhqs2ALA3Nm6AH7wZTjoKmoQEJx0F7/wubNwAwCTuvQtOOopJ/B4A4HZ401Fw0lEkeOdl8Pefwe9/xr/CegBIUHcr3AcALF4Mb5oHB81jX3jnFQD8uxiAf4eGhnqam5oQEQASqsqVV13D9dffyLkvfD719fUAPB0PPfQwH/vkp3nTG17H1Ck9fP4LX+aTn/kcYRgyNj4GQGNDAwCPZ2xsnM2bt7Bi+TIAduzYydQpUzjh+OO4545beOzh+9iyYTWb1j3GnbfdyD/+ej5f/uLneO2rX8nHP/ohFi9eSKlU4qGHH+GDH/kY73j7W/jExz5MkAoAmLS7t5eLL7kMay2HH3YoV11+MUcecTgA+1JfX8/XvvxFdu3azZe+8nXuu/8BfN9n4YL57Nixk+ec9QKuvOoaAJ6Mnu5uXvSCc8hls6gqN958C3/7x8XU19ezfNlSAGq1trTwgnPOprmpCQCXwe1wkEDTPDjoTHjxe+D3t8N9ADCJ+y6AjQCwL7ABTpoH9wFALX5/Jpz0XQCeCMyDVx4JBx3JvnAQACQ46E3wyjcxiS9cDudfToLzzwHg/zs2rAIgwYJ5ADweNl4BJwkcdCb8/na473YA4Ha472fw4nlw0ncBqMV35sEnfgb33Q5Agvtuh9+/Bw6aB++8AoAEzXfCfbczCWAS993OJICng6v+AUCCBfMB+FfYuAE2AsCzyQD8J0RRxA9+9BPe+Z738+IXn8uLz3sRAE/Hzp27eM/7P8TY2Dg/+dkveOVr3sCq1Wv41Cc+ShAE9Pb2AdDZ2QHA49m2fTs7d+1m3ry5FEsl1m/YwLx5c/F9n7a2VvK5HAD7ctihh/D2t76Z+vp65syexY9/8F3e/c63EwQBAIm+vn4++enPcdSxJ3HJpZfT09PN5z/zKdrb2wB4IlOm9PCdb36Ny6+8ine95wMccfhhtLa2MGVKD+ecfRaf+PTnWLd+AwD/yuJFC/nMpz7OiSccx8OPPEp//wBveN1rCIKAnu4uPv/ZT/HlL36OSa9+5cspFovU1dUB8P8R7zwKTjoKXvwzABJ84tVw0lHwg/UAPB4OOhIOehN84TvwhTfBF9bDyG0wBwD2xsYr4KR5cB8AJDhf4fw3AZDgvvfASW+GjQCwN9gAG4H3/BZ+9lv2hecfCUCC558D7/kgkzhjHsydxyQ2bgAANsDGDQBMgg2wEfjBm+Gdb4Z3fgGAx8Pfvw7vfDOT2AgAtThfYUT5Vzj/TQDsC3MXwyvfBK88EoAEHAmvfBO1eP58ALj0ZwAk+MQ8aBL2xjuvAADWwX0AkIAjAajFfe+Bd14BwN7gSDjoSDgIACbx+zPhKgBgznPg/MuZxEEAAEfCFy6H8y8nwXueA9cpjCgJXgkA8CYYUWrxjrkAJFj/KABwJJxxBnzocnjlkQDAkfCFy+H8y0nwnnlw1ZvhoHlw0JsBeDYZgH+33b29vPp1b+Tb3/0Bn/z4R/jcpz+B7/sAPFX9/QO89wMfwlolm81w8EEH8tBDD/P6176ars5OAB559DGm9PTQ2tICQKJSqTA0PAzApI0bN6GqNDc3MTAwwI4du1ixfBkAP/7pL5g5dxGP58UvexWFYhGA+vp6jj/uWEQEgEnDIyPccuttfOoTH+X73/kmAE/FihXLed973oW1lhOOPw4RIfHKV7yUxYsW8PkvfplCsQjAvoRhyE9+9ktOPeN5LFiykvd/6KMce8xR3HPnLXzgfe/muWeewXe+90POv+Ai4jjmvvsf4JWveT1nPO/5jIyOUiqXAPj/CG6H+24HYBLcDvfdDsAkOBK+cDnctx7uUxhRuO42uO6n8I53wxmL4RPzoEngqg0A1OKq78JBZ8J9AJDg/PVwGnDaT+H8NwGQ4L6fwUFHwVUbAKjFD14NB83jifCJ2wFI8Ikz4aB5PBHeeQW8cx4cNA8+cTsACV48D970XVj7M/j9z+D3twPweLjvZ/D7nzGJDQBQi/VXwFVX8K+w/lEA9oU574bv/xSeuxSABF/4LXz/p/Bc4PePwnt+Cu84A7gCfg8ATxYcCV+4HEYURm6DEYX7vgPAJH7/DwAmseA7cJ/CyG1w3W1wncL5bwJgEpdeAQDMhbkA8ERgLrABNm4gwSoASLBxA5PYCAAJ2AB/vx0ADjoP5gCnzYNVtwPAKz8BZ8yDS78AnAFz5gLw72IA/p1uv+NOnvO8F9C7p4/LL/4br3vNq/A8D4CnKopjvvDlr+J5Pj//6Q9pbm7m7LOeyze//hU+/LFPcO31N1Aul7njzrtYsngR+XwegEQUxxSLJQAmnXTi8SxbuoQ3vvnt/P0fl5BOp5gzZzYAiQNWruDG667i7ttvptY3v/4VAP6V+fPmct3Vl/OaV72CTDYDwFMRRRF3330vAF/+6tcZHBwEIJ/L8cmPf5RVq9fyj39cDMC+BEHAsqVLeM2rXsGtN17LQ/fdxbve+XauvuY6jjruZLZs3cqHP/A+PvXZL7BkxcG88LyXAXDdVZfx0x99n+6uLgD+P4Ij4aAjAZgER8JBRwLzYDEAwO3APABgA2zcQC2+cwEACZgLQIKNV8A7j4IXvweABBwJ56+Huevhnd8FgNN+Cue/CYAE3A4vngcnvRmu2gBAApbCQUfyRAAmwZFw0JE8EYD/FD5xJrz4TP4VPnE7AAlYBz+4AoBJcAW8+GcAcNB34B1zgSvgxT8Dboc3fRcArvoHAAk4Eg46kgTAJDgSgAQ8B+67Dd5xBgCTmPNueCUAJOBR2AgACd7xbpgDAJM47YNwEADsje+cCS8+kwT3AQDcDp84E158Jgk2AO+cBwfNI8F9AAA/g4PmMYk3fReABBsvg/sAYBJXfR3uAzgS3nMGXPFq+P3t8LXvAvDvZAD+Xa648mpe8erXc9yxx3DJPy5i4cIFADxdvufx8pe+mB//4Ls0NTYCkDj9tFP4+le+xOKFC1m1eg333f8AJ590IgB7mzt3LgCJ+vp6fvDdbzJ9+nS+/d3vc+QRh9PS3AxAIpVK0d7eRkdHO7UaGxsA+FdEBM/zAHgi6zdsZHx8HIBa519wEbfefjs/+/H3ia3lW9/9AVEcAzB/3ly+882vcuKJxwPweI468nDOO/eF9A8M8IEPfZSlKw7mt7/7Az/+wXf40fe/w8yZMxDgRS98Pu96x1sZGxunuaUZgP/P+P5tcN1tcP6bAEjwhd/CdbfBO+bCgiMBSPCJeXDQPPaF398OALwJTgM2XgHvPAoOOhN+fzsACQ56E9x3G/B1OOhM+P174KTvAsBpP4X7LoeDACDBfT+DF8+Dk46CqzbAO34K190G1/0WfvZb9oUvHAlAgi98An72W/aF624jwffPgPdcDudfDq88EoAEX7gcPvQc+P56uG893Hc5AI+HL1wO961nEqcBwDPFqgvgE2dCk8APNgDAO88EIMGHngMbN8DGefDKIwHgvvfAD66Ar/0MgARf+C1cdxsJvnAkAAnOvw2+fwYAzJkLcwDgmYL1cB8AJFgwD4BaHPQdOP9yJnH+dwB4urjiAgAmwQb42s8A4JWfADbAvPMA4L73wFUA8O9iAP4d1q3fwMc/+RlefO4L+fpXv0gumwXg8YyNjVOpVAB4IocecjBNTY0ATBIRnvucM+jp6eYf/7yEeXPnsGL5UgAmoYq1FoBa9fX1vOVNr8f3PG66+RZ27twFwH/ST376cz7zuS8CMOnW2+7ga9/8Nu9421s45eST+MiH3s/f//5P7r//QQASxxx9FN1dXQDsSxzHfOVr32DuwmWc+5JXIMZw1eUXc9nFf2PatKm87Z3v4f0f/AgNjY2Mj4/z2te8CoCvff1bRFEEwN62btvGl7/6DT7zuS+yfsNGAP4/4h2fgIMA4MngCx8EANbB728HYBKvvByu+ynMAeYuBiDBfe+Bd14BAHPOgOvWwyuPBGAS9wFz5wKQ4AevhoPmsS984nYAEnziTDhoHvvCDzYAkGDOGXDaGbAAABLMOwNOmwvMhTlzYQ4APB6YB3PmMglgb5yvMKI8FXxoKQAJ5s2FHxwFvweABC+eBwfNI8HvbwcgwSfOhPsA4PHAkTAXAJ4IbIBVAJCApTAHAPYFNsA7vwBAAo6EM+YCUAsugEv/wSQuvQCAvXHQm+D8y6nFQQAwCTbA328HYBI/eDXcBwD8/kw4aB68+D0AJLj0CgD+XQzAv8Of/nw+o2NjTJ06hauvvY7Lr7yKWtdcex0jI6MA3HnX3aw8+HBe/LJXMT4+DsDTcc+99/PXv/+Tt7zpDdTX1wMwaWx8nO3bdzBr5gwAJhWKRX70k59x9NFH0dzczIc++nHGx8cB+E+aPXsWAIlbb7uDt73z3Zx5+mm89tWvBOCE447lN7/6GQcesAKAJ8PzPN70xtdz2cV/Y82jD/D1r3wRgLe8/V0cecyJAFx3zeW8/rWvord3D6lUis99+hNcfuVVfPXr3yKKIgAmrVu/gVe/9o20tbUyZUoPb3zz21i3fgMA/9/AGXCdwn2Xw/mX83g4fz2MKLxjLgDMeTd84UgAOOhNcP56+P4ZACSY8244/00AJFj1D9gIADAXvn8b3Hc5vPJIADj/NpgDAHvjoDfBK9/EJA4CgAQHvQle+SYm8cojAXgyYANs3AA/eDO8883wzi8A8Hj4+9fhnW8mwQ+uAGBvfO3NcNUG2LiBJ4Orvgsv/hkAcCTMBc44D4CnirXrAYAN8PfbAYClMAcAngg/eDXcBwAJXnkOALX4wZvhpKOgSaBpHvz+dgA46E1w320wBwBqcd/tsOpRJrHqdgD2Both7jp48Zkk4AxYDACTuOrrcB8ATOKM8wCoxUFHwkEAwO+/AOsB4N/BADzbCsUiq9esJY5jvv7N7/C2d7yHvb3rvR9g+44dADQ2NNDU2EhXVydBEADwVO3cuYsPf/TjHH/sMZx80gkA1LrzrrspV8rMmjUTgISq8vs//Jn16zfymU99nO9/55v07unj7/+8BID16zfw6c9+gY9+/FPU+u3v/gDAs2F0dIz1GzbS3NQEwIMPPczr3vgWzjjtVD79yY/h+z4Avu9z6CEH4/s+AE9Wc1MTjQ0N/PTnv+Two47nlNOfS7lc4eorLuGnP/o+7e3tPPrYKrq6Oslls6xYsZwffu87nH/hRbz6dW9kd28vAIlNmzZz0IEH8MbXv5bEc848g5tvuRWA/w/4xDxoEvjBBth4BVx1BWwAgMcD6+GqK2DjBgASvOO3cP56uO6ncNpcAGpx2k/hC0fCKy+H634KcwBgEnPOgO/fBiMKpwHAvvChD8J7Psgknn8kAAmefw6854NM4rnnAfBk8OJ58J31sPZn8Pufwe9vB+DxcN/P4Pc/I8Hf1wGQ4LlvAiDBfT+DF8+Dg+bxZPDi9wCQ4KDzYA4w5znwhTfBK98E518Or3wTfOE7JLhPYWQ9HAQAtfj9PwCA9XAfAHDQYgCeCD84Cj5xOwAJeBN8/wwAasGjcN/tAEzioDfBhz4IcwBgb7zycvjZb5nEzy4H4Ong0p8BUIs574bz18N96+G+y+H8y+FDv4Xr1sNBwCvPA+DfxQA82/K5HOf/6Xds2bCax7P6kQdYtnQJAIsWLeT+e27nJz/8HplMBoCnYmRklA98+GMAfOwjH8T3fYaGh3nxy17Fy1/1Wl78slfx3vd/mOeceQZz5swGQFX53R/+xHe//wM+/cmPMXPGdKZM6eHvF/6Fl73kPABGRke59dbbufHmW6j18COPAvBU1OXz9O3p4/TnnsMRx5zApGNPPIX1GzawbNlSAJYuWczPf/IDvvj5z5DJZADYl7vvuZfLr7yKxJ/+fD4PP/IIQeADMKlUKvP6N72Vo48/mQsu/BtveP1reODeO/jlz36E7/tcfc11fP4LX+aaa67j0IMPQkQAOPqoI/jLH3/HyMgofXv6AEjU1dWxa3cvIyOjJO5/4EHmzZ0DwP8afvBmOEngxT8DYG9c8QV48Zk8WXxnPQCTuPTVcNJRPB7+Dqz6Apx0FI+Hk94MwOPhxfPgoHlM4hO3A5DgE2fCQfOYxIvfA8DeYAP84M3widsBmMSqdQA8E5z2U/jCmwB4ujjoTfCzdwMAc+EdP4Xv/xROOwP4GXziPSTYADAXfrYeRhS+8B34wpsAgEdhI3DVPwBIsHg+APsCG+AkgU/cDkAC3gT3/RSAvcFSOOhIEgAJ7vsZvHgenPRmAPbG78+Eg+YxiYPOBODpYMGRAOyN0+bCnLlwxRfgxWfCi78OzIXrFL7/bpgHAP8OBuB/kecZpvT0kEln8DzDsqVL+PlPf8iUKT0ANDQ08MqXv5Tp06axaOEC/vDbX/G5T38C3/MAEBE62tv50Afex+mnnQJAoqGhHt/3aaiv48wzTuP6a6/gjltuoNYPv/cd2tvbEBEAnozDDj2EX/78x5x5xmkcf+wxTHr+2Wfx5z/8lqVLFgPg+z7HHXsMvu8D8HhKpRKf/+JXSPzqN7/j5JNO5OznPReASdlshq988fPce+et3HT9Vbzx9a+luamJsfFx3vSWt/Oe932Qhx5+hO9/91u85MXnAjBp8aKFXHbx31ixYjkAicMPO4SjjjycAw89ksTKlcs56sgjAPhfw9qfwX0AUAuOhHkA8Eyw6na473aeCe4DgMfDFy6H8y9nEq88EoAEr/wOnH85k/jCmwDYGz94NXziZwBMgiNh8Xz4/nq4bz3cdzkAj4cvXA73rSfBz94NwCTe8VMYUbhvPU8V9ylc91OYAwBs3ABXXcEkVgFAgvVXwFVXwIb1sHEDvOPdcMZiAOB2uGIDXPozABI89wwA9sbG70LTPLgPABIc9B0Y+SnMAYC98Y6fwnW3kWBE4fzvAJDgvp/BSd8FoBYHfQfOv5xJnP8dAJ4O5i0FoBZsgKuuIMFaAIBH4aorSLARAP5dDMD/otbWVi78yx84+qgjqK+v52Mf+SBz58wBIOF7Hs99zhl8+Yuf4zOf+jhHH3UEnucBMOmM00/lta9+JSICQK2Xv+wl/OC73yKXzQJQ6+ijjuAH3/0WuWwWgFrLli5h9SMPcPKJJwAwSUQ47thj+MJnP8WXv/g5Jn3mUx9n5YrliAgAT9Zxxx7DHbfcwKTvf+ebtLe3AVCro6OdtrZWACa1NDdzzZWXsuqR+/nHX8/njNNPxfM8AJ6I7/u8421vYdO6x0h8+APvw/d9AP7XsOBIAGrxhfUwchucNheASZy/Hu5bz944/zsA7AuLj4SDjuSpAPhPY95SAGpx/m3w/TOAuTBnLswBgMcD82DOXBLMAdgAGzdQC+BfYcNlcNA8ErzpMmADbNxAAoANX4cXn8kk7gOABJ84E158Jgm+sx4A5jwHDgIA/v5q+D0AwJvgNACoxcbvwkHvAWASX1gP170bgCeL094NXzgSgAT3XQAbAWASXACX/oNJXHoBAE8HcxfDFy6HgwAgAevhxWeS4Pe3AwC3w4vPJMEVGwD4dzEALnOZy5h3Hpy/Hs5/EwBPhPXrYcN69sb6VQDsDebC92+D627jyeJDSwGYBEfC+T8F4PHwiTPhxWcyid/fDkCC378HXnwmk/jEzwDYG3MXw0FvglceCcAkfvBmeOebSfDOLwDwePj71+Gdb2YSJ86Dg+bxVPHi9wCQ4L73wEHzmMQ7rwDgqYC58PwjAeC+2wFI8IUPAlALNsCb3gNAAo6E+xTeMReAp4p5SwF4PNx3O6x6lEmsuh2AJwJHwlwAqMWcd8M75gHw38IAuMxlLuO0d8NpcwH4V/jEmfDiM9kbn/gZAE+Eq94MTQInvRk2bgCgFmyAdx4FL/4ZAAl4E9x3G5wGALU44xNw/uXsC688EoAEr/wOnH85+8IZcwFIMOfdcN1PYQEATGLtz+D3PyPB728H4PFw38/g9z9jEqMA8Gxj7mJ45ZuYxEEAkOCgN8Er30SCBfMASPCOTwAwCd4E75gLQC2u+jrcBwAJzr8N5gDA42HjBtgIAHvj0p8BkIClMAcAJvHKy+Fnv2USP7scgH1hwyoAngo4A0aUBF84EgB4E4woCd4xF4B/FwPgMpe57KmAI+GgI9kbBwHA42Hjd+HFPwOA+34GB82Dk46CqzYAwMYr4KR58PvbAUhw0Hdg5KcwBwBqsfEK+M4/4NJ/sC+suh2ABKtWwaX/YF/4zpthIwD8O7D0c3D+5UzilUcCkOCV34HzL2df+MKbAEhw0Jvg/MuZxHvmwZx3w/d/yiQWA0CCD/0Uvv9TErxjLgAJrvoHALXYCAC1uPRnAEzia0fBSUexN056M2wEADZ8HQ4SOOnNcNUVJPjBd+Ekgd8DQIJXngMAV70Zfg8A/P5MOGgekzjoTAASfO27wJFw0JGwGLj0ZwBMgiPhoCNhMQA8Exx0JBwEAM8mA+Ayl7nsqeD82+C629gbP/sOAI+HOe+G+y6HgwAgwX23w4vnQZPAQWfCfQCQ4JWXw3XvBmBfYB38/mc8Hu4DgAT3/Qx+/zMeDxsA4PHw/fVw33oS3Hc5AI+HL1wO961nEr/9JJx2BpN47lIAEvz+PbB+Hpx2BnvjjMUAJGAxnHYGk5gzF4DHw/or4KrvwjvfDCcdBVcBPzgKXvwzACbBz+Cgo+CqDQAkYAOsAoBJ3Hc7+8J9jwJQi/t+Bi8+kwSfeA/cBwAJDnoTfP8MAJ4Kvn8bXHcbvAf4PQDA7XCQAJ+A626D778bgAQTnQDsDTYAkIBH4Z1vhpOOgqajYO5P4brb4LqfAvBsMgAuc5nLngpefBScdBR7403vAeCJMOcMuE7hvsvhIADYF85fD98/A4DHw5x3w33reTx84UgAEnzhcrhvPY+H0wDg8cBcmDOXBHMA4PHAPJgzl0kAtTjtp3D+mwBIsHY9AHvjigsAeDxc9V1451Fw0lHQJPB7AEjwiTPhxe+B3/8M7rsdvibwidsBSMCRACTgdnjxPHjnd2EjADwdzF0MBwHA3uBIeOXlcN1PAUhw2k9hROG+y+GgI+E+hRGFkcvhoCPhC5fDiMJ17waAjd+Fg94DQC1+fyac9Ga4agMACer2ADCJHxwFTQJN8+ATtwMAt8Pvfwb33Q4shTkA8O9gAFzmMpdx1ZuhSeDFPwPgicDtcN/t7I37AODJYM4ZcJ3CfZfDQQBQixfPg3deAcC+8M6j4KSj4E2v5vHwidsBSPCJL8CbXs3j4aSj4J1XwA+OgiaBT9wOABwJcwHg2cRpP4Xz3wQHfQe+fwawAU4SaBIm8YnbAUiweD4AtWAV/P52uO92AJ4I9wFAgoPeBCO3wX3fAWASv38PbACYC9cpjCj/CiO3wRwAYM674TqFEYX71jOJ+xRGboPvnwHAJNgAP3gzHHQm3Hc7HPRmYAOcdCbcdzt84kxoOgre+V1451Fw0HsASPDKy2FkPRwEANz3M3jxPLgKAPbGvKUA7A2OhIOOhFcuho3fhSYhQdM8uA8Ang0GwGUucxlzFwMwCY6EM+YCsDc4Eg46kr1xEAA8Fcw5A65TuO9yOAgAJvHcMwDYF7gd7rudJwIwCW6H+27niQAwbykAk2ApzAGAZxun/RSuezcAMBeefyQAe4Mj4T1nAPCvcNCR8Mo3wSu/A+dfDvethy8cCUCCV34HrvspAMx5N9x3ORwEALzycjgNAJ4p5sxlEnMAYG+889XwiZ8BAEfC+R8E5sLPLodXHgkA3A7MB24HIMErL4fvnwHMhevWwyuPBICDvgOnAcDeYDG88k3whcvhvvVwn8KIwshtcN1t8P13w5z5AOyN5z8HgGfCALjMZS5jznw46EgSvPJNcP5vYQ4AJGApHHQkCc6/Da67jb3xs+/AQUeSAHgqmHMGXKdw/nfgIOCVl8NpALAvfH893LeeZxPfPwPmLoaDjiTBK78D9/0UgP8E5i2Fg46Eg94Er3wTCb5wOdx3G8wBgFqc9kE4fz3ctx5GlATX3Qbf/yl8/91w2hkwZy6847dw0Jvg/PXw/XcDMIk5Z8B16+GV34HvnwHAfwrf/wQAvPJyGLkNTpsLAHPOgO/fBvddDq98E3z/DPj+ejjoSPjCevj+GQAkYC58/zb4wpvgZ+8GIMFEJwCTOO3d8P2fwjvOgDlzYQ4A1IJ58Mo3MYkvXA73rYd3zAXgmTAALnOZy+AMuO42Enz/p3DaXAAm8Y6fwnW3keA0ANgbc94N191Ggu+fAcBTxWnvhusUvn8GAI8H5sKcuTybAJjzbrjuNhJ8/90wBwBqwRkwoiS47t0AMOfdMKIkeMdcAJ4qTvspXHcbXPdT+P5PSfCOM2AOAOwN5sJpc2HOXAAeD8yF634Kp80FYG8wF77/bgD+k+AMGFH4/hkA7I05Z8D3fwoAzIXrboN3zAVgb7zjpzAHABLU1cN1CiMK170bgH8F5sL3f8ok3nEGzJkLwDNlAFzmMpe5zGUu+08yAC5zmctc5jKX/ScZAJe5zGUuc5nL/pMMgMtc5jKXucxl/0kGwGUuc5nLXOay/yQD4DKXucxlLnPZf5IBcJnLXOYyl7nsP8kAuMxlLnOZy1z2n2QAXOYyl7nMZS77TzIALnOZy1zmMpf9JxmA/1VRHHPnXXfz4EMPA1BrT18fY2PjADybevfs4cabbqZcLgPwRIqlEg88+BCFYhGAp6pQLDI8MoKqAqCqDI+MUKlUAHgmevfs4ZFHHyOOYwCeqQcfepgEwNMRxTH33f8AwyMjADwVcRwzODhIpVIBYF9GRka54cabGRkZBeDxVCoVBgcHieMYgH0pl8vceNPN9O7ZA4DLXOayf8UA/K+qVCp8+7s/4Pd/+BMAk3bv7uXFL30lP//lr1FVAJ4tjz62io998jOMjY0D8Hj6+wd4zeveyKc/+wXGxsYAeKp+9/s/8Za3vYtiqQRAsVTiLW97F7fcdjsAk+I45r77H+C97/8w199wEwD/yu//8Gc+/snPMDFRAOCZ+v0f/kQC4OnYtWsXb33Hu7n3vvsBeCoGB4d43vPP5ZbbbgdgX7bv2MHHPvlptu/YAcDjueW223ne889lcHAIgH0ZGxvnY5/8DI8+tgoAl7nMZf+KAfh32r27l+/94Md89OOf4hOf/hyXX3kV5XIZgKdDVYnjGIB9iaKI7/3gR2zZuo3v//DHzJq3mJlzFzHpxS97FYViEYByucyNN93M5Vdexd569+wB4Ol46OFHOOsF53L3Pffx8COPcsTRJzBz7iJq/eJXvwHg6SoUi9x08y28493vY8GSlZz7klcQhiGNjQ3EcQzA4xkfH+e22+/gxBOOo7GxAYBnIopjiqUSAE/Gho0bufzKq6j181/8mrGxcbZv38HlV17FE3nwoYcBeCJRHHPnXXezYeNGAFzmMpftTwbg30FVueivf+eo407iJz/9OZs2b+Hee+/jHe96H2c9/1x27twFwFMRxTFf+8a3eM3r30yhWASgVrFU4oMf/jiXXXEln/vMJ/nRD77DpK986fN0dLSzYP48ctksAIVCgR/++Gd8/otfYdJnPvdF3vaO9/DoY6sAeCqGR0b49Ge/wPNf9BKe95wzWfPoA2zZsJpJD957J6efdgpnnn4aLz73hQA8HW956ztZsvwg3vfBj9LQ0MCFf/kD61Y9xA++9y0OOvAAPM8DIHHjTTfz0Y9/ilrvePf7efiRR3nk0cf46Mc/xeNZtXoNAJPGxsbp6+tnbzt27KS3dw/t7W309fWzt4GBQaIoAiBxzbU38LZ3vIdav//jnymXy3zuC1/mbe94D0/k93/4EwBPpFKp8O3v/oBrrr0BgH2J4pgEgMtc5rJ/JwPw7/DoY6v45Gc+x9vf+mYefuBuzv/T77jysn9y/TVXEIYhX/n6N4niGIAny/c8Xv7Sl7B9+3b+8Y+LAZh01933cMZzzuGmm2/hO9/8OksWL+KM007lzNNP49STT+Khhx4G4HWvfTUiAkBraysX/uUP3HHLDUy69B9/Ze6cOTQ2NHD+hX/lox//FLV++7s/0N8/wBe/8jU++/kvsWPHTqrVKl/6ytc56NCj+O3v/8jKFcsZHx/ns5//Eh/9+KdIfOijn+CUM57LLbfeTpAK+NJXvs5HP/4pEudf+FcAEoODg5z7kldwxDEn8P0f/Ih77r2Pk045k3e8+30UC0UAPvTB9/Hw/Xdz31238qXPf4YDVq7A930KhQJvfMs7uPue+wBIrF6zjvMv/Cs33HgzN958C4l169fT2dnBqtVruPHmW9jbdTfcyJ/Pv5Bdu3cDMOmzn/8ihx55LHs7/qTTeODBh/jJz37JoUcey96OOeFkVq9ZC0DirW9+A1s2rGbSb3/1M/L5PH+78M9s2bCaf+WbX/8KAE9HpVLhpptv4R3vfh+nn3k2Q4NDADyRkZFRbrjxZkZGRgFwmctc9lQZgH+Hv/7tH/T09PDqV74c3/cBSMycMZ0zzzid++5/gKHBIQCeiqlTp/DG17+W3/zuD/T3DwCQmDplCi99yXncfMPVhGHIK1/9er70la+za9du3vr2d/OPiy/hK1/8PDNnTAcgoars2LETVQUgMTY+RhxH1OXzADwZqVSKk048np/+6HsccvBBhGEIQK3b77iTdDrNWc89k1w2C0Dilttu5+677wEgEQQpDj7oAI4/9hjmzJlNU2MjRx99JMuWLsHzPQCmT5tGQ0M9ALUGh4Z4bNUqqtUqAJMOOfggrrvmcu645QaejEv/8Vd6eroB2NsLn382WzasptbNN1xNe3sbv/jZj9iyYTW1LvnHRTQ1NQGwL4VikR/95Occf+wxLF+2FIAnK4oiBgYGGRwcJI5iRkfH6Ovrp1AsAjBpYGCQW2+9nd7ePbzoxS/ntW94C2vWrCOKQgASDz70MJdfeRX33nsfExMTXHfDjVx+5VX07tnD9h07+NgnP832HTsAcJnLXPZUGYBnWxTHnHnGaXzxc5+mqbkJgFq5XBaAp+u0U0/BqnLZ5VcAkJgypYe3vOn11NXVcdqpJ/P73/6SP/7pLxx57Ils2rKFv1/4F0484TgAJq3fsJGzX/hifvrzX6GqAPT29mE8j/b2dl587gv58hc/R61Xv+oVtLe38fGPfIhPf/JjTJ06BYDDDj2EI488AmMMZ55xOl/+4ueY9Pa3vhnf8/jwB97Hl7/4OWoddsjBAExqaKjnwx98P1/+4uc484zTmTdvLp/99Cd48xtfTyaTwfc9vvbNb/PRj3+Kvb37vR/ExpYZM6YB8J+ybdsO4ihmSnc3AE/FP/5xMWvWruVtb30TGzZu4vTnnM0Rx5zA4/n8F78CQGL1mrUcc8LJnPG857Onr4/3f/AjHHrksfzmt79ny5at9A8M8LVvfIuDDz+ab3z7u/i+zw++9y3WrXqIb3/zq2RzOQASl1x6OZ//4lf48/kXMjY2zre/+30+/8WvsGHDJgD25d577+PyK68icedddxPFMQAuc5nL9mYAnm2+53HoIQdz+GGH4nseAJOGhoa46uprOejAA2hpbQHgqWpra+W3v/wZ573ohQAkVJXNm7fwwx//lBNPPZMXnvcyMtksX/vyF/jnX8+nvb2NKIoAmDR/3ly+8NlP8d3v/4Arr7oGgEcefYzp06ZSX1+HqhLHMQBPxeVXXMlHP/4pJr3zPe9nx46dXHXNtXz045+i1l333AvAk5HLZnnvu9/JkUccDsDelixZzPe+8w2mTpkCwL7ceNPNfPTjn2JfVq1eA8BTde999zE0PMxV11xLFEUAPBkPPfQwX/vmt3nrm9/E4kUL6ers5P3vfRef/PhH2NvJJ57Anj19dHV1ApBYtnQJqx95gLtvv5menm5+8bMfsWXDao495mhe9OKXsWnTZl5wzlnceuO1/P2iv9DW1sqM6dPxfR+AWp/8+Ee445Yb+ObXv0JPTzeX/uOv3HHLDRx91BEA7MtPfvZL3vaO95D49nd/QKVSAcBlLnPZ3gzAv9uq1Wv46Mc/xTve9T6OOeFUpk2dyqc+/lF8zwPg6Zg6dQq5fA6AhIjw4MMP84c//YXjjjmaKy/7J/fccTPnnftCNm/ZynPPeRGr16wFoNbpp53Cu9/5Dj7y8U9y2+13cuNNN3P8cceSTqf50U9+xqtf90bGx8cB+Fd8z+PEE45j6ZLFAPT19/OXCy7iwYce5sgjj6C+rg6AWsccdSSHHnoIAI/HxjH33f8Au3t7OfigA/nCZz/Fl7/4Ofb2hc9+ikMPORgRAWBfVq9Zx1VXX0sYRQAkiqUSF/3tH+zavRuAp2JgYJBLLruCZUuX8Ovf/p4f/OgnRFEEwBPZuXMX73n/h5g6ZQovPu+FiAhNTY2ccvJJnHn6aUw69eST2LZtB3//5yV8/atf4g2vew0AT2TRwgXccsO1HHboIcydO5epU6cgIgBMGh0do1QsAvB0/eJnP2LLhtUkzv/T78jncgC4zGUu25sB+E+pVKtUq1X6B/qpVCoAPFsqlQpHHXEE//zrBbz1zW+kpbmZwcEh+vr6GR4exsaW4eFh+vr6KRSLACREhDe87tWcefppvPI1r2f9+g0cftihAJxz1vPYuXMX3/7uD1BVAJ5IOp3mTW94HW9/65vJ5XLcdPOtHHLwQTz/7Oexdes2Xv+6V/PlL36OSZ/+5MeYOnUKdXV5VBWAvT38yCMcccyJvO6Nb2Hnzl28+GWvYubcRTyeF7/sVRSKRQAez7x5c/nspz/Bl7/4ORIf/8iHaG9vA+CpUFUuuOiv7Nq1iy994bN89Utf4Ec/+Tm/+NVvUVUA9mV8fJwPffTjbN6ylbq6OlKpFAB76+vr5yUvfzUX/vVvXPSXP/DC55+NiADwRHzfJ5vLAvB4ypUy1TAEwGUuc9m/mwH4d1u8aCFf/uLn+PlPfsA9d9yC5/m8/V3vZXhkBICnQ1W5/Y47efiRRwC45bbbOfTIY9mXV732jezp6+NVr30jhx55LL/7/Z8AmOT7Pu9/77uZNWsmS5YsYvq0aQBMmdLDxz76If58/gVce/0NADyeNWvW8ua3vZMlyw/i6ONP5v4HHuR3v/45f/7Db3jD619LuVzmbe94D4ODgwyPjPCTn/2Sgw8/hh//9BfEUYy1FoDePXv4+je/w4mnnslXv/5Nspksn/7ER7nj1htZtGghAO98+1u5+/ab2ds73/5WAP5TrrzqGr7xre/yhte9lqVLFnP6aafw3W99ne9+/wdcedU1AOxtZGSUt73zvWzavIV3v/NtADyePX197Ny1i+9882ssXLgAgGfLxPgEba2tpNNpAFzmMpf9OxmAZ1scxwwODlIoFgGo1dTUyJvf+DoeefQxHntsNQBPVRRF/OBHP+FNb3kH5XIFgJNPPIEtG1azef0qNq59lC0bVjPpkn9cRHd3F5f84yK2bFjNW9/8BgBqbdq8hZ07d3HrbXfwt7//A4DEySeewEtffB5f/8a3GRwcBGBfpkzp4ZCDD+JnP/khax97kL9d+Gfa29t52zvfw8te+Rre/rY3k8lkOPbE0zjg4CP45re/y8c/+iHuvfMWznrec/A8D4A9e/q4+pprOfXkE3npi89l3ry5nHnm6eSyWQASuVyOjo529pbL5QD4T7j1tjv48Mc+wRGHH8qb3vBaRASA0087hXe/8x185OOf5KGHHgagVpAK6O7u4pc/+zHLli0FIHH+hX/lox//FLW+/8Mf098/wPd/+GM++vFPMemnP/8llUoFgKeqv3+Ak057Du95/4dYtmwp+bo8AC5zmcv+nQzAs214eITnv+il/OjHPwNgb/l8Hs/ziKIQgKdid28vb337u/nRT37Gt7/xVQ45+EAAElEc89GPf4pPfOqzRFEEwJMxODjIJz71GV74gnP40Pvfy9e++W0eW7UaABHhLW96A5/42IdpamoCYF/q6+t5w+tew8IF8/nr3/7B8SedzhnPPYcZ06dz643XctZzn0NzczOeZ/jB977FlJ5uMpk0mUwGgEkrli/jmisv5SMf+gDTp08HYG+XX3ElH/34p9jb5VdcCcC/0j8wwNXXXMvlV15F4robbmRiYgKAJ+Ovf/sHr3rtGzj6yCP5yQ+/R319PQAJEeE1r3o5Bx90IN/5/g8plcoATMrncnzty19g8aKFADzbdu/u5cKL/kaxUARgb21trXzty1/ggj//ns9+6uP4ngfA3qxaNm/ewsOPPAqAy1zmsmfCADzbmpqbWLFiGddcex2Dg4MATFJVbr7lNvL5HFOnTgEgMTY2TqVSAeDxxHHM93/4E9at38Bf/vg7TjnlJEQMAAnf83jn29/K3ffexy9+9VtUFYAnUiyV+MKXvkZsLe9425t51atezvJlS/nBj35CGIYAdHS0c+wxR+N5HgD7sn7DRo489kQOPvxofvHr3/LOt7+Fhx+4mw9/8H1cf8NNHH38yWzYuBGAaVOn8u53vZ3PfO6LPPTQwwD8J23atJn3vv/DvO0d7yHx0Y9/irGxcQCejFNPOYmf/vj7fO8736C+vh6AWplMhm9+7St8+xtfI5vNAPCvvPjcF/LlL36OWu98+1tpb2/jnW9/K1/+4ueY9OY3vp50Og2AqjI6NkYcxbzjXe/jyGNP5L77H8DzPQAmBUHA1ClTSKVSHHTgARx6yMH85fwL+eWvfwuAqjI4OMjatevYtWs3xxx/CieccgZ333MvAE/H1m3b+PJXv8FnPvdF1m/YCIDLXOYaA/Bs8z2PN7z21fTu2cNb3/Ee1qxdRxzHDAwM8t3v/4gf/+RnvOVNb2TO7NkA3HnX3aw8+HBe/LJXMT4+DsC+eJ7Hxz78Aa647B+sWL4MgL1NmdLDRz70fr77/R9w6213APB4iqUSH//EZ7juhhv41te+THdXF/lcjs99+pN85EPvJwgCAJ6MuXNm89MffZ9777yV66++nDPPPJ1LLr2cQ444lo998jN86fOf4cI//4FcNkf/wADPe86ZnHn6abzlHe9m1eo1ADxZZ55xOl/+4ufY25lnnA7AE3nrm9/Alg2r2ZeTTzwBgH+lvr6eU046Ed/3AdiXpqZGEgD/Ltdcdz1Llh/EKac/lzCKeOfb38LtN1/PV770edLpNACTFi6Yz4V/+QMLF8wHIPHIo4+xatVqJiYmOPclr+Cgw47m69/8DrNnz+L97303d9xyA2943WsAeKrWrd/Aq1/7RtraWpkypYc3vvltrFu/AQCXucwlBuDfYcWK5fz8Jz9kcGiI059zNnMWLOXgw4/mJz/7BR/+0Pt5w+tejYgA0NjQQFNjI11dnQRBAMDjqaurI5fNAvB4Tj7xBH71859wyMEHArAvURzz0Y9/iutuuIFf/+KnrFixHIDErFkzmTF9OgBPlogwf95cHlu1ite+4c0sXXEwX/36t3jXO97KvXfewlnPew47d+2iGoa0t7Xh+z6f/MRHOfzQQznr+edywYV/JY5jAP6VYrFIX18/eysWiwD8N7HWolYBeLYtWrCAj37kg9x647Xcd9etvP2tb6a7uwuASdbGAOytXC6zu3cPc+fOpa6ujve9553886/ns/axB7n+6st5y5teT0tLM319/QwPD2Njy/DwMH19/QwODhJHMaOjY/T19TOpUqkAkNi0aTMHHXgAb3z9a0k858wzuPmWWwFwmctcYgD+XQ479BCuvfJSHrj3Du6+/WbuvfNWHn3wHt74+tfi+z4AiUWLFnL/Pbfzkx9+j0wmA8AzISLMmjWT62+8icuvvIq//u0fFAoFfM8DIOF7Hu9421v46wV/5qADDwBgX4ZHRrjsiiu5/MqruOTSy/njn/6C7/kYYwCYdNPNt7Bk+UG89g1vIZ/Lc+Ff/sA9d9zMC845mwcfepjzL/wrH//kZ2hrbWHqlB4ActksX//qF3ntq1/Jgw8/gqoyNjbOV7/+TT768U9x4V//RktLM+l0GoBJ3//hjzn0yGPZ2/d/+GMAno5bbr2dj378UyQ+/bkv0LenD9/zAHgqiqUS3//hj/noxz9F4oMf/hgATU2NAPwrIyOjXHPtdVx+5VX87g9/olAo4HseAHubOnUKr3z5S5k6dQoiAsCkXDbLtGlT+ea3v8fhRx3PEcecQK0jjz2J22+/gwNWLgfgyCMOZ8WK5aTTaQASt9x2O4ceeSyveu0b2dPXx6te+0YOPfJYznje89nT18f7P/gRDj3yWCbdctvtACTq6urYtbuXkZFREvc/8CDz5s4BwGUuc4kB+HcSEZqbmujoaKetrRXf9wF4NogI7e1tNDU1AVBreGiYb3/n+3z+i1/h+htu4vWvfQ3z5s0FYNK8uXNIADyeVCrFZZddyee/+BW+9NWvs3Xbdj70gffS2toCwKSjjjyCa666jHWrHuIH3/sWBx14AJ7ncelll/OSl7+a737/hxx26CH89tc/p7W1FYCE7/t8/KMf4kuf/wy+7+MHPtt37OTGm29hwfx5vPsdb8P3PABEhPb2Nr74uU+zZcNq9vbFz32a9vY2RASAREN9He3tbYgIAI+nob6Ou+65lxtvvoXHHlvNG9/wWg499BAAJjU1NZEAeDzZTIbW1lYAEgcdeABf/+oXmTplCgC1MukM7e1tiAgACUX57e//yOe/+BVuve12XvnylzFv3lwAngoR4TOf/Bif+NiHOeH4Yzn+2GOoddZzz+T3v/0lhx16CAD7csxRR3L37TfzZB1z1JEAJA4/7BCOOvJwDjz0SBIrVy7nqCOPAMBlLnOJAfhflctm+cF3v8UnP/4RAGotWrSQa668lDtuuYGbb7iad7/zbfi+D8BTkc/l+NEPvsMdt9xA4vqrL+e5zzkDEQFgku/7zJo5A9/3AZj0spe+mC0bVnP7zdfz+c9+iu6uLgAeTy6b5Qff/RZ33HIDP/7Bd1m4cAEAiVw2yw+++y1e/rKXALC3l7/sJfzgu98il80CkHj5y17CD777LXLZLACPZ8WK5Vx/9eXcccsN3HzD1Xz4g+8nl80CMOmTH/8ICYDHIyK87CXn8eUvfo5Jxxx9FCICQK2jjzqCH3z3W+SyWQASzU1N/OG3v+KOW24g8cH3vwff9wF4qurq6njda17Fl7/4Ofb2mU99nCMOPwwRAWBf0uk0HR3tPFnpdBqAhO/7vONtb2HTusdIfPgD78P3fQBc5jKXGACXucxlLnOZy/6TDIDLXOYyl7nMZf9JBsBlLnOZy1zmsv8kA+Ayl7nMZS5z2X+SAXCZy1zmMpe57D/JALjMZS5zmctc9p9kAFzmMpe5zGUu+08yAC5zmctc5jKX/ScZAJe5zGUuc5nL/pMMgMtc5jKXucxl/0kGwGUuc5nLXOay/yQD4DKXucxlLnPZf5IBcJnLXOYyl7nsP8kAuMxlLnOZy1z2n2QAXOYyl7nMZS77TzIALnOZy1zmMpf9J/0fLghY6YKgF6YAAAAASUVORK5CYII=;" vertex="1" parent="1">
          <mxGeometry x="360" y="500" width="286" height="92.99" as="geometry" />
        </mxCell>
        <mxCell id="jS7jD-KFzvZU8KAP5oS8-7" value="如何避免指令重排导致的并发问题&#xa;&#xa;使用 volatile 关键字来确保关键变量的读写操作不被重排。&#xa;使用 synchronized 来保证代码块的顺序执行。&#xa;遵循 happens-before 原则来确保多线程环境下的可见性和有序性。" style="text;whiteSpace=wrap;fontSize=18;" vertex="1" parent="1">
          <mxGeometry x="10" y="780" width="560" height="100" as="geometry" />
        </mxCell>
      </root>
    </mxGraphModel>
  </diagram>
</mxfile>
